<svg width="24" height="24" viewBox="0 0 24 24" fill="none" xmlns="http://www.w3.org/2000/svg">
<path d="M13.7278 17.1776L14.0138 16.7675L13.6704 16.5279L13.3742 16.824L13.7278 17.1776ZM18.8093 20.7217L19.1628 21.0752L19.585 20.6531L19.0953 20.3115L18.8093 20.7217ZM17.6694 21.8615L17.3158 21.508L17.3158 21.508L17.6694 21.8615ZM14.7668 22.5951L14.6237 23.0742L14.7668 22.5951ZM6.29028 17.4272L6.64383 17.0736L6.29028 17.4272ZM1.12234 8.9507L1.60142 8.80758L1.60142 8.80758L1.12234 8.9507ZM1.85592 6.04808L1.50237 5.69453H1.50237L1.85592 6.04808ZM2.99581 4.9082L3.40592 4.62217L3.0644 4.1325L2.64226 4.55464L2.99581 4.9082ZM6.53986 9.98967L6.89341 10.3432L7.18952 10.0471L6.94997 9.70364L6.53986 9.98967ZM14.8471 12.959L14.3483 12.924V12.924L14.8471 12.959ZM18.4373 12.9112L18.9361 12.9462V12.9462L18.4373 12.9112ZM22.5945 12.8072L23.0933 12.8422V12.8422L22.5945 12.8072ZM11.0065 20.606L14.0814 17.5312L13.3742 16.824L10.2994 19.8989L11.0065 20.606ZM13.4418 17.5877L18.5232 21.1318L19.0953 20.3115L14.0138 16.7675L13.4418 17.5877ZM18.4557 20.3681L17.3158 21.508L18.0229 22.2151L19.1628 21.0752L18.4557 20.3681ZM17.3158 21.508C16.6865 22.1373 15.7627 22.3708 14.9099 22.116L14.6237 23.0742C15.8285 23.4341 17.1338 23.1043 18.0229 22.2151L17.3158 21.508ZM14.9099 22.116C11.8503 21.202 9.09564 19.5254 6.64383 17.0736L5.93673 17.7807C8.49625 20.3403 11.3926 22.109 14.6237 23.0742L14.9099 22.116ZM6.64383 17.0736C4.19203 14.6218 2.51545 11.8672 1.60142 8.80758L0.643266 9.09382C1.6085 12.3249 3.3772 15.2212 5.93673 17.7807L6.64383 17.0736ZM1.60142 8.80758C1.34665 7.95479 1.58013 7.03098 2.20948 6.40164L1.50237 5.69453C0.613184 6.58371 0.283308 7.88895 0.643267 9.09383L1.60142 8.80758ZM2.20948 6.40164L3.34936 5.26175L2.64226 4.55464L1.50237 5.69453L2.20948 6.40164ZM2.5857 5.19422L6.12975 10.2757L6.94997 9.70364L3.40592 4.62217L2.5857 5.19422ZM6.18631 9.63611L3.11147 12.711L3.81858 13.4181L6.89341 10.3432L6.18631 9.63611ZM14.3483 12.924L14.3076 13.5039L15.3052 13.5739L15.3458 12.994L14.3483 12.924ZM10.4545 9.18773C12.6344 8.94412 14.5018 10.736 14.3483 12.924L15.3458 12.994C15.543 10.183 13.1439 7.88094 10.3435 8.19391L10.4545 9.18773ZM17.9385 12.8763L17.865 13.9243L18.8626 13.9943L18.9361 12.9462L17.9385 12.8763ZM10.4546 5.69498C14.6443 5.22675 18.2335 8.67078 17.9385 12.8763L18.9361 12.9462C19.2748 8.11777 15.1539 4.16358 10.3435 4.70117L10.4546 5.69498ZM22.0957 12.7722L21.9842 14.3623L22.9818 14.4322L23.0933 12.8422L22.0957 12.7722ZM10.4545 1.60169C16.9716 0.873362 22.5546 6.23054 22.0957 12.7722L23.0933 12.8422C23.5958 5.67754 17.4812 -0.189811 10.3434 0.607882L10.4545 1.60169Z" fill="#99CB38"/>
</svg>
