<svg width="26" height="26" viewBox="0 0 26 26" fill="none" xmlns="http://www.w3.org/2000/svg">
<path d="M14.6118 18.2636L15.1838 17.4434L14.4969 16.9643L13.9047 17.5565L14.6118 18.2636ZM20.0462 22.0538L20.7533 22.7609L21.5976 21.9166L20.6182 21.2336L20.0462 22.0538ZM18.8271 23.2728L18.12 22.5657L18.12 22.5657L18.8271 23.2728ZM15.7229 24.0574L15.4367 25.0155L15.7229 24.0574ZM6.65771 18.5305L7.36481 17.8234L6.65771 18.5305ZM1.13084 9.46531L2.089 9.17907L2.089 9.17906L1.13084 9.46531ZM1.91537 6.36109L1.20826 5.65398L1.20826 5.65398L1.91537 6.36109ZM3.13443 5.14203L3.95464 4.56998L3.27161 3.59064L2.42732 4.43493L3.13443 5.14203ZM6.92462 10.5764L7.63173 11.2835L8.22395 10.6913L7.74484 10.0044L6.92462 10.5764ZM15.8088 13.752L14.8112 13.682L15.8088 13.752ZM19.6484 13.7009L20.6459 13.7709V13.7709L19.6484 13.7009ZM24.0943 13.5896L25.0919 13.6596V13.6596L24.0943 13.5896ZM12.0305 22.2591L15.3189 18.9707L13.9047 17.5565L10.6163 20.8449L12.0305 22.2591ZM14.0397 19.0838L19.4741 22.874L20.6182 21.2336L15.1838 17.4434L14.0397 19.0838ZM19.3391 21.3467L18.12 22.5657L19.5342 23.9799L20.7533 22.7609L19.3391 21.3467ZM18.12 22.5657C17.5679 23.1179 16.7574 23.3227 16.0092 23.0992L15.4367 25.0155C16.8891 25.4494 18.4624 25.0518 19.5342 23.9799L18.12 22.5657ZM16.0092 23.0992C12.8168 22.1455 9.93678 20.3954 7.36481 17.8234L5.9506 19.2376C8.73802 22.025 11.9015 23.9594 15.4367 25.0155L16.0092 23.0992ZM7.36481 17.8234C4.79285 15.2514 3.04268 12.3714 2.089 9.17907L0.172684 9.75154C1.22878 13.2867 3.16319 16.4502 5.9506 19.2376L7.36481 17.8234ZM2.089 9.17906C1.86547 8.43087 2.07031 7.62036 2.62248 7.0682L1.20826 5.65398C0.136425 6.72582 -0.261215 8.29917 0.172687 9.75156L2.089 9.17906ZM2.62248 7.0682L3.84153 5.84914L2.42732 4.43493L1.20826 5.65398L2.62248 7.0682ZM2.31421 5.71409L6.10441 11.1485L7.74484 10.0044L3.95464 4.56998L2.31421 5.71409ZM6.21752 9.86932L2.92912 13.1577L4.34333 14.5719L7.63173 11.2835L6.21752 9.86932ZM14.8112 13.682L14.7677 14.3022L16.7628 14.4422L16.8063 13.8219L14.8112 13.682ZM11.1629 10.1812C13.2053 9.95293 14.955 11.6319 14.8112 13.682L16.8063 13.8219C17.0375 10.5259 14.2245 7.82658 10.9407 8.19356L11.1629 10.1812ZM18.6509 13.631L18.5722 14.7518L20.5673 14.8917L20.6459 13.7709L18.6509 13.631ZM11.1629 6.44586C15.3549 5.97738 18.946 9.42323 18.6509 13.631L20.6459 13.7709C21.0285 8.31723 16.374 3.85104 10.9408 4.45824L11.1629 6.44586ZM23.0968 13.5196L22.9775 15.2202L24.9726 15.3601L25.0919 13.6596L23.0968 13.5196ZM11.1628 2.06828C17.8438 1.32163 23.5671 6.81352 23.0968 13.5196L25.0919 13.6596C25.6496 5.70752 18.8629 -0.804712 10.9407 0.0806549L11.1628 2.06828Z" fill="#99CB38"/>
</svg>
