<svg width="32" height="32" viewBox="0 0 32 32" fill="none" xmlns="http://www.w3.org/2000/svg">
<path d="M31.5703 2.88089H25.6522L18.356 0.500459C17.9178 0.357096 17.4532 0.313213 16.996 0.372001C16.5388 0.43079 16.1004 0.590772 15.7128 0.840306L11.3165 3.66463C11.269 3.69506 11.2281 3.73453 11.1959 3.78079C11.1637 3.82705 11.141 3.87919 11.1289 3.93424C11.1169 3.9893 11.1158 4.04618 11.1258 4.10164C11.1358 4.1571 11.1565 4.21006 11.187 4.2575C11.2174 4.30493 11.2569 4.3459 11.3031 4.37808C11.3494 4.41026 11.4015 4.43301 11.4566 4.44503C11.5116 4.45706 11.5685 4.45812 11.624 4.44816C11.6794 4.43821 11.7324 4.41742 11.7798 4.387L16.1761 1.56641C16.4569 1.38611 16.7744 1.27077 17.1054 1.22881C17.4364 1.18685 17.7726 1.21933 18.0895 1.32388L25.4531 3.71928C25.4958 3.73333 25.5406 3.74041 25.5856 3.74024H31.1421V10.9496H27.9495C27.8709 10.9497 27.7937 10.9714 27.7265 11.0123C27.6594 11.0533 27.6047 11.1118 27.5685 11.1817C27.0876 11.9951 26.3532 12.6284 25.4778 12.9842V11.0552C26.1657 10.7618 26.9 10.2512 27.3686 9.3612C27.395 9.31126 27.4113 9.25661 27.4166 9.20037C27.4219 9.14414 27.416 9.08741 27.3994 9.03344C27.3827 8.97946 27.3556 8.92929 27.3196 8.8858C27.2836 8.8423 27.2393 8.80633 27.1894 8.77994C27.1394 8.75354 27.0848 8.73724 27.0285 8.73197C26.9723 8.72669 26.9156 8.73255 26.8616 8.7492C26.8076 8.76584 26.7575 8.79296 26.714 8.82899C26.6705 8.86503 26.6345 8.90928 26.6081 8.95922C25.7922 10.5192 23.7636 10.5888 23.7523 10.5888C21.0351 10.5888 20.2506 8.69198 20.2191 8.61338C20.188 8.5324 20.1331 8.46274 20.0616 8.41357C19.9901 8.3644 19.9054 8.33803 19.8186 8.33791H15.7861C15.6332 8.34182 15.4811 8.31508 15.3387 8.25926C15.1962 8.20344 15.0664 8.11968 14.9569 8.0129C14.8474 7.90613 14.7603 7.77851 14.7009 7.63757C14.6414 7.49662 14.6108 7.3452 14.6108 7.19223C14.6108 7.03927 14.6414 6.88785 14.7009 6.7469C14.7603 6.60596 14.8474 6.47834 14.9569 6.37157C15.0664 6.26479 15.1962 6.18103 15.3387 6.12521C15.4811 6.06939 15.6332 6.04265 15.7861 6.04656H20.5994C20.6573 6.04898 20.7151 6.03966 20.7692 6.01918C20.8234 5.99869 20.8729 5.96746 20.9147 5.92736C20.9566 5.88726 20.9898 5.83911 21.0126 5.78582C21.0353 5.73253 21.047 5.67519 21.047 5.61726C21.047 5.55932 21.0353 5.50199 21.0126 5.4487C20.9898 5.39541 20.9566 5.34726 20.9147 5.30716C20.8729 5.26706 20.8234 5.23582 20.7692 5.21534C20.7151 5.19485 20.6573 5.18554 20.5994 5.18796H15.7861C15.5197 5.18281 15.2549 5.23084 15.0072 5.32926C14.7595 5.42767 14.5339 5.57448 14.3437 5.7611C14.1534 5.94773 14.0023 6.17042 13.8991 6.41615C13.7959 6.66188 13.7428 6.92572 13.7428 7.19223C13.7428 7.45875 13.7959 7.72259 13.8991 7.96832C14.0023 8.21405 14.1534 8.43674 14.3437 8.62337C14.5339 8.80999 14.7595 8.9568 15.0072 9.05521C15.2549 9.15363 15.5197 9.20166 15.7861 9.19651H19.5499C19.9085 9.8545 21.0568 11.4474 23.7613 11.4474C24.0504 11.4346 24.3376 11.3948 24.6192 11.3284V17.6912C24.619 17.8591 24.5522 18.0201 24.4335 18.1388C24.3148 18.2575 24.1538 18.3243 23.9859 18.3245H1.83368C1.66597 18.3243 1.50516 18.2577 1.38636 18.1394C1.26757 18.021 1.20044 17.8604 1.19965 17.6927V6.67984C1.19985 6.51195 1.26663 6.35098 1.38535 6.23226C1.50407 6.11354 1.66504 6.04676 1.83293 6.04656H12.7792C12.837 6.04898 12.8948 6.03966 12.949 6.01918C13.0032 5.99869 13.0527 5.96746 13.0945 5.92736C13.1363 5.88726 13.1696 5.83911 13.1923 5.78582C13.2151 5.73253 13.2268 5.67519 13.2268 5.61726C13.2268 5.55932 13.2151 5.50199 13.1923 5.4487C13.1696 5.39541 13.1363 5.34726 13.0945 5.30716C13.0527 5.26706 13.0032 5.23582 12.949 5.21534C12.8948 5.19485 12.837 5.18554 12.7792 5.18796H1.83368C1.43843 5.18934 1.05977 5.34696 0.780286 5.62645C0.500802 5.90593 0.343178 6.2846 0.341797 6.67984V17.6927C0.343178 18.0879 0.500802 18.4666 0.780286 18.7461C1.05977 19.0256 1.43843 19.1832 1.83368 19.1846H23.9859C24.3811 19.1832 24.7598 19.0256 25.0393 18.7461C25.3188 18.4666 25.4764 18.0879 25.4778 17.6927V13.8937C27.0168 13.4034 27.8784 12.2933 28.1928 11.8075H31.5703C31.6842 11.8075 31.7933 11.7623 31.8739 11.6819C31.9544 11.6015 31.9998 11.4924 32 11.3786V3.31056C32 3.19661 31.9547 3.08732 31.8742 3.00674C31.7936 2.92616 31.6843 2.88089 31.5703 2.88089Z" fill="black"/>
<path d="M3.25209 14.4477V9.92259C3.70372 9.8358 4.11894 9.61558 4.44413 9.29039C4.76932 8.9652 4.98954 8.54997 5.07634 8.09835H12.407C12.5178 8.09372 12.6224 8.04647 12.6992 7.96647C12.7759 7.88646 12.8188 7.7799 12.8188 7.66905C12.8188 7.55819 12.7759 7.45163 12.6992 7.37163C12.6224 7.29162 12.5178 7.24437 12.407 7.23975H4.68783C4.57388 7.23975 4.46459 7.28502 4.38401 7.36559C4.30343 7.44617 4.25816 7.55546 4.25816 7.66942C4.25845 7.85813 4.22157 8.04504 4.1496 8.21949C4.07764 8.39393 3.97201 8.55249 3.83874 8.6861C3.70548 8.81971 3.5472 8.92575 3.37295 8.99817C3.19869 9.07059 3.01187 9.10796 2.82316 9.10816C2.71037 9.10894 2.60241 9.15404 2.52258 9.23373C2.44276 9.31342 2.39746 9.4213 2.39648 9.53409V14.8369C2.39648 14.8933 2.4076 14.9491 2.42921 15.0012C2.45081 15.0533 2.48247 15.1006 2.52238 15.1405C2.56229 15.1803 2.60966 15.2119 2.66179 15.2334C2.71391 15.2549 2.76977 15.2659 2.82616 15.2658C3.20669 15.2664 3.57146 15.4179 3.84046 15.6871C4.10947 15.9562 4.26076 16.321 4.26115 16.7016C4.26115 16.758 4.27227 16.8138 4.29387 16.8659C4.31548 16.918 4.34714 16.9653 4.38705 17.0051C4.42696 17.045 4.47433 17.0766 4.52646 17.0981C4.57858 17.1196 4.63444 17.1306 4.69083 17.1305H21.13C21.1864 17.1306 21.2423 17.1196 21.2944 17.0981C21.3465 17.0766 21.3939 17.045 21.4338 17.0051C21.4737 16.9653 21.5054 16.918 21.527 16.8659C21.5486 16.8138 21.5597 16.758 21.5597 16.7016C21.5601 16.321 21.7114 15.9562 21.9804 15.6871C22.2494 15.4179 22.6141 15.2664 22.9947 15.2658C23.0511 15.2659 23.1069 15.2549 23.1591 15.2334C23.2112 15.2119 23.2586 15.1803 23.2985 15.1405C23.3384 15.1006 23.37 15.0533 23.3916 15.0012C23.4132 14.9491 23.4244 14.8933 23.4244 14.8369V12.8966C23.4268 12.8387 23.4175 12.781 23.397 12.7268C23.3765 12.6726 23.3453 12.6231 23.3052 12.5813C23.2651 12.5395 23.2169 12.5062 23.1636 12.4835C23.1103 12.4607 23.053 12.449 22.9951 12.449C22.9371 12.449 22.8798 12.4607 22.8265 12.4835C22.7732 12.5062 22.7251 12.5395 22.685 12.5813C22.6448 12.6231 22.6136 12.6726 22.5931 12.7268C22.5726 12.781 22.5633 12.8387 22.5658 12.8966V14.4477C22.1142 14.5346 21.6991 14.7549 21.3739 15.0801C21.0488 15.4052 20.8285 15.8204 20.7415 16.2719H5.07634C4.98935 15.8204 4.76907 15.4052 4.44391 15.0801C4.11875 14.7549 3.70363 14.5346 3.25209 14.4477Z" fill="#FBD846"/>
<path d="M12.3429 10.7733H13.3759C13.4867 10.7687 13.5914 10.7215 13.6681 10.6415C13.7448 10.5615 13.7877 10.4549 13.7877 10.344C13.7877 10.2332 13.7448 10.1266 13.6681 10.0466C13.5914 9.96662 13.4867 9.91937 13.3759 9.91474H13.0383V9.63852C13.0408 9.58064 13.0314 9.52286 13.011 9.46867C12.9905 9.41448 12.9592 9.36499 12.9191 9.32317C12.879 9.28136 12.8309 9.24809 12.7776 9.22536C12.7243 9.20263 12.667 9.19092 12.609 9.19092C12.5511 9.19092 12.4938 9.20263 12.4405 9.22536C12.3872 9.24809 12.339 9.28136 12.2989 9.32317C12.2588 9.36499 12.2276 9.41448 12.2071 9.46867C12.1866 9.52286 12.1773 9.58064 12.1797 9.63852V9.92522C11.8268 9.95187 11.4986 10.1163 11.2659 10.383C11.0332 10.6496 10.9148 10.9972 10.9363 11.3504C10.9577 11.7037 11.1172 12.0343 11.3805 12.2709C11.6437 12.5075 11.9894 12.631 12.3429 12.6148H12.8744C13.005 12.6148 13.1303 12.6667 13.2227 12.7591C13.3151 12.8514 13.367 12.9767 13.367 13.1074C13.367 13.238 13.3151 13.3633 13.2227 13.4557C13.1303 13.548 13.005 13.5999 12.8744 13.5999H11.8429C11.785 13.5975 11.7272 13.6068 11.673 13.6273C11.6188 13.6478 11.5693 13.679 11.5275 13.7191C11.4857 13.7592 11.4524 13.8074 11.4297 13.8607C11.407 13.9139 11.3953 13.9713 11.3953 14.0292C11.3953 14.0872 11.407 14.1445 11.4297 14.1978C11.4524 14.2511 11.4857 14.2992 11.5275 14.3393C11.5693 14.3794 11.6188 14.4107 11.673 14.4311C11.7272 14.4516 11.785 14.4609 11.8429 14.4585H12.1797V14.7347C12.1844 14.8455 12.2316 14.9502 12.3116 15.0269C12.3916 15.1036 12.4982 15.1465 12.609 15.1465C12.7199 15.1465 12.8265 15.1036 12.9065 15.0269C12.9865 14.9502 13.0337 14.8455 13.0383 14.7347V14.4458C13.3915 14.4194 13.7202 14.2551 13.9531 13.9883C14.186 13.7215 14.3046 13.3737 14.283 13.0201C14.2615 12.6666 14.1016 12.3358 13.838 12.0992C13.5743 11.8627 13.2282 11.7395 12.8744 11.7562H12.3429C12.2768 11.7588 12.2108 11.748 12.1489 11.7245C12.087 11.7009 12.0305 11.6651 11.9828 11.6193C11.9351 11.5734 11.8972 11.5183 11.8712 11.4574C11.8453 11.3965 11.8319 11.331 11.8319 11.2648C11.8319 11.1986 11.8453 11.1331 11.8712 11.0721C11.8972 11.0112 11.9351 10.9562 11.9828 10.9103C12.0305 10.8644 12.087 10.8286 12.1489 10.8051C12.2108 10.7816 12.2768 10.7708 12.3429 10.7733Z" fill="#FBD846"/>
<path d="M7.87704 11.8826C7.7977 11.9622 7.75257 12.0697 7.75128 12.182C7.75123 12.2105 7.75424 12.2388 7.76026 12.2666C7.76553 12.2939 7.77381 12.3205 7.78497 12.346C7.79524 12.3724 7.80855 12.3975 7.82464 12.4208C7.83979 12.4441 7.85735 12.4656 7.87704 12.4852C7.89699 12.5052 7.9188 12.5232 7.94217 12.5391C7.96581 12.5544 7.99088 12.5675 8.01702 12.578C8.04317 12.5889 8.07023 12.5974 8.09787 12.6035C8.12552 12.6086 8.15359 12.6111 8.18171 12.611C8.29537 12.6106 8.4043 12.5654 8.48488 12.4852C8.50481 12.4655 8.52286 12.4439 8.53877 12.4208C8.55375 12.3968 8.567 12.3718 8.57845 12.346C8.58834 12.3201 8.59635 12.2936 8.6024 12.2666C8.60818 12.2388 8.61094 12.2104 8.61063 12.182C8.60999 12.0974 8.58433 12.0149 8.53688 11.9448C8.48942 11.8747 8.4223 11.8202 8.34395 11.7882C8.2656 11.7562 8.17954 11.7481 8.09659 11.7649C8.01364 11.7817 7.93751 11.8226 7.87779 11.8826H7.87704Z" fill="#FBD846"/>
<path d="M17.2791 12.4242C17.2952 12.4471 17.3133 12.4687 17.333 12.4885C17.3777 12.5336 17.4319 12.5681 17.4915 12.5896C17.5512 12.6112 17.6149 12.6191 17.6781 12.613C17.7412 12.6068 17.8022 12.5867 17.8566 12.554C17.911 12.5214 17.9574 12.477 17.9925 12.4242C18.0086 12.4008 18.0219 12.3757 18.0322 12.3493C18.0434 12.3239 18.0516 12.2972 18.0569 12.27C18.0628 12.2427 18.0659 12.2148 18.0659 12.1869C18.0683 12.129 18.059 12.0712 18.0385 12.017C18.018 11.9628 17.9868 11.9133 17.9467 11.8715C17.9066 11.8297 17.8584 11.7964 17.8051 11.7737C17.7519 11.751 17.6945 11.7393 17.6366 11.7393C17.5786 11.7393 17.5213 11.751 17.468 11.7737C17.4147 11.7964 17.3666 11.8297 17.3265 11.8715C17.2864 11.9133 17.2551 11.9628 17.2347 12.017C17.2142 12.0712 17.2049 12.129 17.2073 12.1869C17.2074 12.2148 17.2102 12.2426 17.2155 12.27C17.2215 12.2971 17.2297 12.3236 17.2402 12.3493C17.2511 12.3753 17.2641 12.4003 17.2791 12.4242Z" fill="#FBD846"/>
<path d="M28.1103 18.9281C27.7095 18.6131 27.2052 18.4601 26.697 18.4992C26.1889 18.5383 25.7139 18.7666 25.366 19.1391L22.651 22.0743C22.61 22.1151 22.5777 22.1639 22.5561 22.2175C22.5344 22.2712 22.5238 22.3287 22.5249 22.3865C22.526 22.4444 22.5388 22.5014 22.5624 22.5542C22.5861 22.607 22.6202 22.6545 22.6627 22.6938C22.7052 22.7331 22.7552 22.7634 22.8096 22.7829C22.8641 22.8024 22.922 22.8107 22.9797 22.8073C23.0375 22.8039 23.094 22.7889 23.1458 22.7631C23.1976 22.7374 23.2437 22.7014 23.2813 22.6574L25.9963 19.7223C26.1966 19.5076 26.4701 19.3761 26.7628 19.3536C27.0555 19.3311 27.3459 19.4194 27.5765 19.601C27.6975 19.6971 27.7982 19.8162 27.8727 19.9515C27.9472 20.0868 27.9941 20.2356 28.0106 20.3892C28.0271 20.5428 28.0129 20.6981 27.9688 20.8461C27.9248 20.9942 27.8517 21.132 27.7539 21.2516L23.0275 27.032C22.6843 27.453 22.1953 27.7295 21.6577 27.8068L12.5087 29.131C12.044 29.1996 11.6013 29.3742 11.2148 29.6413C10.8284 29.9085 10.5086 30.261 10.2803 30.6715L10.0302 31.1206H1.61414L5.97377 24.6778C6.59761 23.7489 7.4637 23.0083 8.47823 22.5363C9.49277 22.0644 10.6171 21.8789 11.7295 22.0002C12.4672 22.0767 13.1937 22.2372 13.8951 22.4785C14.3715 22.6488 14.8735 22.7369 15.3795 22.739H19.7548C20.0902 22.7394 20.4117 22.8728 20.6489 23.11C20.8861 23.3471 21.0195 23.6687 21.0199 24.0041C21.0195 24.3661 20.8755 24.7131 20.6195 24.9691C20.3636 25.2251 20.0165 25.369 19.6545 25.3694H15.6459C14.9898 25.3693 14.3543 25.5986 13.8494 26.0177L12.9077 26.7992C12.8235 26.873 12.7714 26.9767 12.7625 27.0884C12.7536 27.2 12.7887 27.3107 12.8602 27.3968C12.9317 27.483 13.0341 27.5378 13.1454 27.5497C13.2568 27.5615 13.3684 27.5294 13.4564 27.4602L14.3973 26.6787C14.7472 26.3887 15.1871 26.2299 15.6415 26.2295H19.653C20.2426 26.2287 20.8078 25.9942 21.2247 25.5773C21.6416 25.1604 21.8762 24.5951 21.877 24.0056C21.8762 23.4426 21.6522 22.9029 21.2541 22.5048C20.856 22.1067 20.3163 21.8827 19.7533 21.8819H15.3795C14.9711 21.8797 14.5661 21.808 14.1818 21.67C13.4186 21.4061 12.6277 21.2303 11.8245 21.146C10.5567 21.0072 9.27505 21.218 8.1184 21.7554C6.96174 22.2928 5.97417 23.1365 5.26264 24.1949L0.449379 31.3063C0.404784 31.3709 0.37875 31.4465 0.374105 31.5249C0.369459 31.6033 0.38638 31.6814 0.423029 31.7509C0.459678 31.8203 0.514654 31.8784 0.581985 31.9188C0.649317 31.9592 0.726429 31.9803 0.804946 31.98H10.2832C10.36 31.9795 10.4353 31.9584 10.5011 31.9189C10.5669 31.8794 10.6209 31.8229 10.6575 31.7554L11.0318 31.0817C11.196 30.7869 11.4258 30.5338 11.7034 30.3419C11.9811 30.1501 12.2991 30.0246 12.633 29.9753L21.7842 28.6564C22.5344 28.5485 23.2168 28.1627 23.696 27.5754L28.4224 21.795C28.5927 21.5875 28.7199 21.3482 28.7967 21.0909C28.8734 20.8337 28.8982 20.5638 28.8694 20.2969C28.8407 20.03 28.7591 19.7715 28.6294 19.5365C28.4997 19.3014 28.3245 19.0946 28.114 18.9281H28.1103Z" fill="black"/>
</svg>
