<svg width="33" height="33" viewBox="0 0 33 33" fill="none" xmlns="http://www.w3.org/2000/svg">
<path d="M0.341797 32.6272H32.5359L0.341797 0.433105V32.6272ZM1.3414 28.129H4.34019V27.1294H1.3414V24.1306H3.34059V23.131H1.3414V20.1322H4.34019V19.1326H1.3414V16.1338H3.34059V15.1342H1.3414V12.1354H4.34019V11.1358H1.3414V2.84614L30.1228 31.6276H1.3414V28.129Z" fill="#333333"/>
<path d="M6.83919 14.4275V28.129H20.5407L6.83919 14.4275ZM7.83878 16.8405L18.1276 27.1294H7.83878V16.8405Z" fill="#333333"/>
<path d="M32.5171 23.8182L31.2816 18.8772L12.8375 0.433105L9.13202 4.13862L27.5761 22.5827L32.5171 23.8182ZM31.1427 22.4438L28.0869 21.6801L13.5442 7.13741L15.8363 4.84533L30.379 19.388L31.1427 22.4438ZM12.8375 1.84654L15.1296 4.13862L12.8375 6.43069L10.5455 4.13862L12.8375 1.84654Z" fill="#FBD846"/>
</svg>
