<svg width="32" height="33" viewBox="0 0 32 33" fill="none" xmlns="http://www.w3.org/2000/svg">
<path d="M31.2157 30.822C27.9721 30.822 24.72 30.822 21.4764 30.822C16.0879 30.822 10.6993 30.822 5.31073 30.822C3.75383 30.822 2.20559 30.822 0.648704 30.822C0.864939 30.9921 1.08117 31.1621 1.29741 31.3322C1.29741 29.1551 1.29741 26.978 1.29741 24.8009C1.29741 20.4468 1.29741 16.0926 1.29741 11.7384C1.29741 8.47956 1.29741 5.22072 1.29741 1.96869C1.29741 1.68975 1.29741 1.41761 1.29741 1.13867C1.08117 1.30876 0.864939 1.47884 0.648704 1.64893C3.89223 1.64893 7.1444 1.64893 10.3879 1.64893C15.7765 1.64893 21.1651 1.64893 26.5536 1.64893C28.1105 1.64893 29.6588 1.64893 31.2157 1.64893C30.9994 1.47884 30.7832 1.30876 30.5669 1.13867C30.5669 3.31577 30.5669 5.49286 30.5669 7.66995C30.5669 12.0241 30.5669 16.3783 30.5669 20.7325C30.5669 23.9913 30.5669 27.2502 30.5669 30.5022C30.5669 30.7812 30.5669 31.0533 30.5669 31.3322C30.5669 31.9922 31.8644 31.9922 31.8644 31.3322C31.8644 29.1551 31.8644 26.978 31.8644 24.8009C31.8644 20.4468 31.8644 16.0926 31.8644 11.7384C31.8644 8.47956 31.8644 5.22072 31.8644 1.96869C31.8644 1.68975 31.8644 1.41761 31.8644 1.13867C31.8644 0.859734 31.5703 0.628418 31.2157 0.628418C27.9721 0.628418 24.72 0.628418 21.4764 0.628418C16.0879 0.628418 10.6993 0.628418 5.31073 0.628418C3.75383 0.628418 2.20559 0.628418 0.648704 0.628418C0.294079 0.628418 0 0.859734 0 1.13867C0 3.31577 0 5.49286 0 7.66995C0 12.0241 0 16.3783 0 20.7325C0 23.9913 0 27.2502 0 30.5022C0 30.7812 0 31.0533 0 31.3322C0 31.6112 0.294079 31.8425 0.648704 31.8425C3.89223 31.8425 7.1444 31.8425 10.3879 31.8425C15.7765 31.8425 21.1651 31.8425 26.5536 31.8425C28.1105 31.8425 29.6588 31.8425 31.2157 31.8425C32.0546 31.8425 32.0546 30.822 31.2157 30.822Z" fill="#333333"/>
<path d="M15.3492 1.12647C15.3492 3.3172 15.3492 5.50793 15.3492 7.69866C15.3492 12.0801 15.3492 16.4616 15.3492 20.843C15.3492 24.1223 15.3492 27.4015 15.3492 30.674C15.3492 30.9546 15.3492 31.2285 15.3492 31.5092C15.3492 32.1732 16.6522 32.1732 16.6522 31.5092C16.6522 29.3184 16.6522 27.1277 16.6522 24.937C16.6522 20.5555 16.6522 16.1741 16.6522 11.7926C16.6522 8.51334 16.6522 5.23409 16.6522 1.96168C16.6522 1.681 16.6522 1.40715 16.6522 1.12647C16.6522 0.462402 15.3492 0.462402 15.3492 1.12647Z" fill="#FBD846"/>
<path d="M0.651087 1.88594C3.90842 1.88594 7.17443 1.88594 10.4318 1.88594C15.8433 1.88594 21.2548 1.88594 26.6663 1.88594C28.2298 1.88594 29.7846 1.88594 31.3482 1.88594C32.1907 1.88594 32.1907 0.583008 31.3482 0.583008C28.0908 0.583008 24.8248 0.583008 21.5675 0.583008C16.156 0.583008 10.7445 0.583008 5.33295 0.583008C3.76944 0.583008 2.2146 0.583008 0.651087 0.583008C-0.191476 0.583008 -0.191476 1.88594 0.651087 1.88594Z" fill="#333333"/>
<path d="M31.3485 30.724C28.0912 30.724 24.8252 30.724 21.5679 30.724C16.1564 30.724 10.7448 30.724 5.33333 30.724C3.76981 30.724 2.21498 30.724 0.651466 30.724C0.868621 30.9412 1.08578 31.1584 1.30293 31.3755C1.30293 28.0661 1.30293 24.7653 1.30293 21.4559C1.30293 16.0878 1.30293 10.7197 1.30293 5.35163C1.30293 3.97921 1.30293 2.60679 1.30293 1.22568C1.08578 1.44284 0.868621 1.65999 0.651466 1.87715C3.90879 1.87715 7.17481 1.87715 10.4321 1.87715C15.8436 1.87715 21.2552 1.87715 26.6667 1.87715C28.2302 1.87715 29.785 1.87715 31.3485 1.87715C31.1314 1.65999 30.9142 1.44284 30.6971 1.22568C30.6971 4.53513 30.6971 7.83589 30.6971 11.1453C30.6971 16.5134 30.6971 21.8815 30.6971 27.2496C30.6971 28.622 30.6971 29.9944 30.6971 31.3755C30.6971 32.2181 32 32.2181 32 31.3755C32 28.0661 32 24.7653 32 21.4559C32 16.0878 32 10.7197 32 5.35163C32 3.97921 32 2.60679 32 1.22568C32 0.86955 31.7047 0.574219 31.3485 0.574219C28.0912 0.574219 24.8252 0.574219 21.5679 0.574219C16.1564 0.574219 10.7448 0.574219 5.33333 0.574219C3.76981 0.574219 2.21498 0.574219 0.651466 0.574219C0.295331 0.574219 0 0.86955 0 1.22568C0 4.53513 0 7.83589 0 11.1453C0 16.5134 0 21.8815 0 27.2496C0 28.622 0 29.9944 0 31.3755C0 31.7316 0.295331 32.027 0.651466 32.027C3.90879 32.027 7.17481 32.027 10.4321 32.027C15.8436 32.027 21.2552 32.027 26.6667 32.027C28.2302 32.027 29.785 32.027 31.3485 32.027C32.1911 32.027 32.1911 30.724 31.3485 30.724Z" fill="#333333"/>
<path d="M17.6406 14.915C17.6406 15.8444 17.6406 16.7651 17.6406 17.6945C17.6406 18.5371 18.9436 18.5371 18.9436 17.6945C18.9436 16.7651 18.9436 15.8444 18.9436 14.915C18.9436 14.0811 17.6406 14.0811 17.6406 14.915Z" fill="#FBD846"/>
<path d="M13.0557 14.915C13.0557 15.8444 13.0557 16.7651 13.0557 17.6945C13.0557 18.5371 14.3586 18.5371 14.3586 17.6945C14.3586 16.7651 14.3586 15.8444 14.3586 14.915C14.3586 14.0811 13.0557 14.0811 13.0557 14.915Z" fill="#FBD846"/>
</svg>
