<svg width="33" height="33" viewBox="0 0 33 33" fill="none" xmlns="http://www.w3.org/2000/svg">
<path d="M18.5851 16.7546C18.5851 15.7571 17.8983 14.9243 16.9754 14.6845V9.24262C16.9754 8.9459 16.735 8.70605 16.4388 8.70605C16.1427 8.70605 15.9023 8.9459 15.9023 9.24262V14.6845C15.1516 14.8798 14.5641 15.4674 14.3688 16.218H10.5366C10.2404 16.218 10 16.4579 10 16.7546C10 17.0513 10.2404 17.2911 10.5366 17.2911H14.3688C14.6086 18.2146 15.4419 18.9009 16.4388 18.9009C17.6225 18.9009 18.5851 17.9382 18.5851 16.7546ZM16.4388 17.8277C15.847 17.8277 15.3657 17.3464 15.3657 16.7546C15.3657 16.1627 15.847 15.6814 16.4388 15.6814C17.0307 15.6814 17.512 16.1627 17.512 16.7546C17.512 17.3464 17.0307 17.8277 16.4388 17.8277Z" fill="black"/>
<path d="M16.4389 6.02279C16.735 6.02279 16.9754 5.78294 16.9754 5.48622V4.94965C16.9754 4.65293 16.735 4.41309 16.4389 4.41309C16.1427 4.41309 15.9023 4.65293 15.9023 4.94965V5.48622C15.9023 5.78294 16.1427 6.02279 16.4389 6.02279Z" fill="black"/>
<path d="M15.9023 28.0224V28.559C15.9023 28.8557 16.1427 29.0955 16.4389 29.0955C16.735 29.0955 16.9754 28.8557 16.9754 28.559V28.0224C16.9754 27.7257 16.735 27.4858 16.4389 27.4858C16.1427 27.4858 15.9023 27.7257 15.9023 28.0224Z" fill="black"/>
<path d="M28.2433 17.2909C28.5395 17.2909 28.7799 17.0511 28.7799 16.7543C28.7799 16.4576 28.5395 16.2178 28.2433 16.2178H27.7068C27.4106 16.2178 27.1702 16.4576 27.1702 16.7543C27.1702 17.0511 27.4106 17.2909 27.7068 17.2909H28.2433Z" fill="black"/>
<path d="M4.63435 16.2178C4.33816 16.2178 4.09778 16.4576 4.09778 16.7543C4.09778 17.0511 4.33816 17.2909 4.63435 17.2909H5.17091C5.4671 17.2909 5.70748 17.0511 5.70748 16.7543C5.70748 16.4576 5.4671 16.2178 5.17091 16.2178H4.63435Z" fill="black"/>
<path d="M24.4068 9.32274C24.5442 9.32274 24.6815 9.27016 24.7862 9.16553L25.1655 8.78617C25.3753 8.57638 25.3753 8.23726 25.1655 8.02747C24.9557 7.81767 24.6166 7.81767 24.4068 8.02747L24.0275 8.40682C23.8177 8.61662 23.8177 8.95573 24.0275 9.16553C24.1321 9.27069 24.2694 9.32274 24.4068 9.32274Z" fill="#FBD846"/>
<path d="M8.09179 24.3424L7.71243 24.7218C7.50263 24.9316 7.50263 25.2707 7.71243 25.4805C7.81706 25.5851 7.95442 25.6377 8.09179 25.6377C8.22915 25.6377 8.36651 25.5851 8.47114 25.4805L8.85049 25.1011C9.06029 24.8913 9.06029 24.5522 8.85049 24.3424C8.6407 24.1326 8.30105 24.1326 8.09179 24.3424Z" fill="#FBD846"/>
<path d="M8.85049 8.40682L8.47114 8.02747C8.26134 7.81767 7.92223 7.81767 7.71243 8.02747C7.50263 8.23726 7.50263 8.57638 7.71243 8.78617L8.09179 9.16553C8.19642 9.27016 8.33378 9.32274 8.47114 9.32274C8.6085 9.32274 8.74586 9.27016 8.85049 9.16553C9.06029 8.95627 9.06029 8.61662 8.85049 8.40682Z" fill="#FBD846"/>
<path d="M16.4388 0.722656C7.56293 0.722656 0.341797 7.94379 0.341797 16.8197C0.341797 25.6956 7.56293 32.9167 16.4388 32.9167C18.3576 32.9167 20.2372 32.5814 22.0267 31.9193C22.3046 31.8168 22.4463 31.5077 22.3438 31.2303C22.2408 30.9513 21.9328 30.8096 21.6543 30.9132C19.9845 31.5303 18.2299 31.8436 16.4388 31.8436C8.15477 31.8436 1.41493 25.1038 1.41493 16.8197C1.41493 8.53563 8.15477 1.79579 16.4388 1.79579C24.7229 1.79579 31.4628 8.53563 31.4628 16.8197C31.4628 18.6118 31.1494 20.3659 30.5318 22.0346C30.4293 22.3131 30.571 22.6216 30.8489 22.7241C31.1269 22.8287 31.4354 22.6855 31.5384 22.4075C32.2005 20.6191 32.5359 18.7395 32.5359 16.8197C32.5359 7.94379 25.3148 0.722656 16.4388 0.722656Z" fill="black"/>
<path d="M27.1702 22.7758V22.185C27.1702 21.8883 26.9298 21.6484 26.6336 21.6484C26.3375 21.6484 26.0971 21.8883 26.0971 22.185V22.7779C25.5117 22.897 24.9783 23.2077 24.585 23.6729C24.2572 24.0603 24.1053 24.5561 24.159 25.0696C24.2137 25.5949 24.4842 26.0821 24.9011 26.4062L26.0971 27.3361V30.2539C25.4741 30.0318 25.0239 29.4416 25.0239 28.7429C25.0239 28.4462 24.7836 28.2064 24.4874 28.2064C24.1912 28.2064 23.9508 28.4462 23.9508 28.7429C23.9508 30.0382 24.8742 31.1221 26.0971 31.3716V31.8432C26.0971 32.14 26.3375 32.3798 26.6336 32.3798C26.9298 32.3798 27.1702 32.14 27.1702 31.8432V31.37C27.7556 31.2509 28.289 30.9402 28.6828 30.475C29.0106 30.0865 29.162 29.5907 29.1083 29.0772C29.053 28.5525 28.7831 28.0658 28.3662 27.7422L27.1702 26.8113V23.8934C27.7932 24.1156 28.2434 24.7058 28.2434 25.4044C28.2434 25.7011 28.4837 25.941 28.7799 25.941C29.0761 25.941 29.3165 25.7011 29.3165 25.4044C29.3165 24.1091 28.3931 23.0253 27.1702 22.7758ZM27.7073 28.5889C27.8946 28.7344 28.0164 28.9538 28.0411 29.1888C28.0641 29.4088 28.0008 29.6197 27.8635 29.7817C27.6767 30.0023 27.4353 30.1568 27.1702 30.2512V28.1704L27.7073 28.5889ZM25.56 25.5589C25.3722 25.413 25.2509 25.1935 25.2262 24.958C25.2037 24.7385 25.2665 24.5282 25.4038 24.3656C25.5906 24.1451 25.832 23.9906 26.0971 23.8961V25.9764L25.56 25.5589Z" fill="#FBD846"/>
</svg>
