<svg width="28" height="34" viewBox="0 0 28 34" fill="none" xmlns="http://www.w3.org/2000/svg">
<path d="M25.4725 17.2056V31.3051C25.4725 31.9692 25.0164 32.48 24.4234 32.48H3.30409C2.71111 32.48 2.25497 31.9692 2.25497 31.3051V17.2056" stroke="#333333" stroke-width="1.5"/>
<path fill-rule="evenodd" clip-rule="evenodd" d="M26.3857 15.9797C26.3857 16.6438 25.9295 17.1547 25.3365 17.1547H2.34706C1.75408 17.1547 1.29794 16.6438 1.29794 15.9797V10.7179C1.29794 10.0538 1.75408 9.54297 2.34706 9.54297H25.3365C25.9295 9.54297 26.3857 10.0538 26.3857 10.7179V15.9797Z" stroke="#333333" stroke-width="1.5"/>
<path fill-rule="evenodd" clip-rule="evenodd" d="M20.5927 5.81381C19.5892 6.93769 15.0278 10.2071 13.9786 9.08327C12.9751 7.95939 15.8944 2.79979 16.8979 1.67591C17.9014 0.552039 19.5435 0.552039 20.5927 1.67591C21.5962 2.79979 21.5962 4.68994 20.5927 5.81381Z" stroke="#FBD846" stroke-width="1.5"/>
<path fill-rule="evenodd" clip-rule="evenodd" d="M7.04471 5.81351C8.04822 6.93738 12.6552 10.2579 13.6587 9.13405C14.6623 8.01017 11.743 2.85057 10.6938 1.72669C9.69032 0.602821 8.04822 0.602821 7.04471 1.72669C6.0412 2.79948 6.0412 4.63855 7.04471 5.81351Z" stroke="#FBD846" stroke-width="1.5"/>
<path d="M10.6944 13.6811C10.6944 13.6811 11.3786 11.3312 14.0242 10.1562V32.4294" stroke="#FBD846" stroke-width="1.5"/>
<path d="M13.8409 10.2065C13.8409 10.2065 14.89 14.2934 18.5392 14.9064" stroke="#FBD846" stroke-width="1.5"/>
</svg>
