<svg width="87" height="87" viewBox="0 0 87 87" fill="none" xmlns="http://www.w3.org/2000/svg">
<path d="M85.1746 7.16742H69.0979L49.2775 0.700946C48.0873 0.3115 46.8253 0.192289 45.5832 0.35199C44.3411 0.51169 43.1503 0.946283 42.0973 1.62415L30.1547 9.29647C30.0258 9.37912 29.9145 9.48634 29.8271 9.61201C29.7397 9.73767 29.6779 9.87932 29.6452 10.0289C29.6126 10.1784 29.6097 10.3329 29.6367 10.4836C29.6638 10.6343 29.7202 10.7781 29.8029 10.907C29.8855 11.0358 29.9927 11.1471 30.1184 11.2346C30.2441 11.322 30.3857 11.3838 30.5353 11.4164C30.6848 11.4491 30.8393 11.452 30.99 11.4249C31.1407 11.3979 31.2845 11.3414 31.4134 11.2588L43.356 3.59663C44.1187 3.10683 44.9811 2.7935 45.8803 2.67952C46.7795 2.56554 47.6929 2.65377 48.5536 2.93778L68.557 9.44492C68.6731 9.4831 68.7946 9.50232 68.9169 9.50186H84.0114V29.0863H75.3386C75.1249 29.0866 74.9154 29.1455 74.7329 29.2567C74.5504 29.3678 74.4019 29.5269 74.3036 29.7167C72.9973 31.9264 71.0021 33.6466 68.6241 34.6133V29.373C70.4928 28.5759 72.4877 27.1891 73.7607 24.7713C73.8324 24.6356 73.8766 24.4872 73.891 24.3344C73.9053 24.1816 73.8894 24.0275 73.8442 23.8809C73.7989 23.7343 73.7253 23.598 73.6274 23.4799C73.5295 23.3617 73.4093 23.264 73.2736 23.1923C73.138 23.1206 72.9895 23.0763 72.8368 23.062C72.684 23.0476 72.5299 23.0635 72.3833 23.1088C72.2366 23.154 72.1004 23.2276 71.9822 23.3255C71.8641 23.4234 71.7663 23.5436 71.6946 23.6793C69.4781 27.9171 63.9674 28.1062 63.9369 28.1062C56.5554 28.1062 54.4243 22.9533 54.3389 22.7398C54.2543 22.5198 54.1051 22.3306 53.9109 22.197C53.7167 22.0635 53.4866 21.9918 53.251 21.9915H42.2966C41.8812 22.0021 41.4679 21.9295 41.081 21.7778C40.6941 21.6262 40.3415 21.3987 40.0439 21.1086C39.7464 20.8186 39.5099 20.4719 39.3484 20.089C39.187 19.7061 39.1038 19.2948 39.1038 18.8793C39.1038 18.4637 39.187 18.0524 39.3484 17.6695C39.5099 17.2866 39.7464 16.94 40.0439 16.6499C40.3415 16.3599 40.6941 16.1323 41.081 15.9807C41.4679 15.829 41.8812 15.7564 42.2966 15.767H55.3719C55.5291 15.7736 55.6861 15.7483 55.8333 15.6926C55.9805 15.637 56.1149 15.5521 56.2285 15.4432C56.3421 15.3343 56.4325 15.2035 56.4942 15.0587C56.556 14.914 56.5878 14.7582 56.5878 14.6008C56.5878 14.4434 56.556 14.2877 56.4942 14.1429C56.4325 13.9981 56.3421 13.8674 56.2285 13.7584C56.1149 13.6495 55.9805 13.5646 55.8333 13.509C55.6861 13.4533 55.5291 13.428 55.3719 13.4346H42.2966C41.5727 13.4206 40.8534 13.5511 40.1805 13.8184C39.5077 14.0858 38.8949 14.4846 38.3781 14.9916C37.8612 15.4985 37.4506 16.1035 37.1704 16.771C36.8901 17.4385 36.7457 18.1553 36.7457 18.8793C36.7457 19.6033 36.8901 20.32 37.1704 20.9875C37.4506 21.655 37.8612 22.26 38.3781 22.767C38.8949 23.2739 39.5077 23.6727 40.1805 23.9401C40.8534 24.2074 41.5727 24.3379 42.2966 24.3239H52.5209C53.495 26.1113 56.6143 30.4386 63.9613 30.4386C64.7465 30.4038 65.5267 30.2955 66.2917 30.1153V47.3999C66.2911 47.856 66.1097 48.2932 65.7872 48.6157C65.4647 48.9382 65.0274 49.1197 64.5713 49.1202H4.39453C3.93895 49.1197 3.50209 48.9389 3.17938 48.6173C2.85666 48.2957 2.67432 47.8595 2.67217 47.4039V17.4873C2.6727 17.0312 2.85413 16.594 3.17663 16.2715C3.49914 15.949 3.9364 15.7676 4.39249 15.767H34.1281C34.2853 15.7736 34.4423 15.7483 34.5895 15.6926C34.7367 15.637 34.8712 15.5521 34.9847 15.4432C35.0983 15.3343 35.1887 15.2035 35.2504 15.0587C35.3122 14.914 35.344 14.7582 35.344 14.6008C35.344 14.4434 35.3122 14.2877 35.2504 14.1429C35.1887 13.9981 35.0983 13.8674 34.9847 13.7584C34.8712 13.6495 34.7367 13.5646 34.5895 13.509C34.4423 13.4533 34.2853 13.428 34.1281 13.4346H4.39453C3.32083 13.4384 2.29218 13.8666 1.53296 14.6258C0.773736 15.385 0.345548 16.4136 0.341797 17.4873V47.4039C0.345548 48.4776 0.773736 49.5063 1.53296 50.2655C2.29218 51.0247 3.32083 51.4529 4.39453 51.4567H64.5713C65.645 51.4529 66.6737 51.0247 67.4329 50.2655C68.1921 49.5063 68.6203 48.4776 68.6241 47.4039V37.084C72.8049 35.7521 75.1454 32.7364 75.9995 31.4167H85.1746C85.4838 31.4167 85.7804 31.294 85.9992 31.0755C86.218 30.8571 86.3413 30.5607 86.3418 30.2515V8.33464C86.3418 8.02507 86.2188 7.72819 85.9999 7.50929C85.781 7.29039 85.4841 7.16742 85.1746 7.16742Z" fill="black"/>
<path d="M8.24608 38.5885V26.2961C9.47293 26.0604 10.6009 25.4621 11.4843 24.5788C12.3677 23.6954 12.9659 22.5674 13.2017 21.3406H33.1156C33.4164 21.328 33.7008 21.1996 33.9092 20.9823C34.1177 20.765 34.2341 20.4755 34.2341 20.1743C34.2341 19.8732 34.1177 19.5837 33.9092 19.3664C33.7008 19.1491 33.4164 19.0207 33.1156 19.0081H12.1463C11.8367 19.0081 11.5398 19.1311 11.321 19.35C11.1021 19.5689 10.9791 19.8658 10.9791 20.1754C10.9799 20.688 10.8797 21.1957 10.6842 21.6696C10.4887 22.1435 10.2017 22.5742 9.83974 22.9372C9.47773 23.3001 9.04776 23.5882 8.57439 23.7849C8.10102 23.9817 7.59352 24.0832 7.0809 24.0837C6.7745 24.0858 6.48122 24.2084 6.26437 24.4248C6.04751 24.6413 5.92448 24.9344 5.92181 25.2408V39.6459C5.92181 39.7991 5.95202 39.9508 6.0107 40.0923C6.06939 40.2338 6.15539 40.3624 6.26381 40.4706C6.37222 40.5788 6.50091 40.6646 6.64251 40.723C6.78411 40.7815 6.93585 40.8114 7.08903 40.8111C8.12275 40.8127 9.11364 41.2242 9.8444 41.9554C10.5752 42.6865 10.9861 43.6776 10.9872 44.7113C10.9872 44.8645 11.0174 45.0162 11.0761 45.1577C11.1348 45.2992 11.2208 45.4278 11.3292 45.536C11.4376 45.6442 11.5663 45.73 11.7079 45.7884C11.8495 45.8469 12.0013 45.8768 12.1544 45.8765H56.8117C56.9649 45.8768 57.1166 45.8469 57.2582 45.7884C57.3998 45.73 57.5285 45.6442 57.6369 45.536C57.7454 45.4278 57.8314 45.2992 57.8901 45.1577C57.9487 45.0162 57.9789 44.8645 57.9789 44.7113C57.98 43.6776 58.391 42.6865 59.1218 41.9554C59.8525 41.2242 60.8434 40.8127 61.8771 40.8111C62.0303 40.8114 62.182 40.7815 62.3236 40.723C62.4652 40.6646 62.5939 40.5788 62.7024 40.4706C62.8108 40.3624 62.8968 40.2338 62.9555 40.0923C63.0141 39.9508 63.0443 39.7991 63.0443 39.6459V34.3752C63.0509 34.2179 63.0256 34.061 62.97 33.9138C62.9143 33.7665 62.8295 33.6321 62.7205 33.5185C62.6116 33.4049 62.4808 33.3145 62.336 33.2528C62.1913 33.1911 62.0355 33.1592 61.8781 33.1592C61.7208 33.1592 61.565 33.1911 61.4202 33.2528C61.2755 33.3145 61.1447 33.4049 61.0358 33.5185C60.9268 33.6321 60.842 33.7665 60.7863 33.9138C60.7307 34.061 60.7054 34.2179 60.7119 34.3752V38.5885C59.4853 38.8248 58.3576 39.4232 57.4743 40.3065C56.591 41.1898 55.9926 42.3175 55.7563 43.5441H13.2017C12.9654 42.3175 12.367 41.1898 11.4837 40.3065C10.6004 39.4232 9.4727 38.8248 8.24608 38.5885Z" fill="#FBD846"/>
<path d="M32.9443 28.609H35.7505C36.0514 28.5964 36.3357 28.468 36.5442 28.2507C36.7526 28.0334 36.869 27.7439 36.869 27.4428C36.869 27.1416 36.7526 26.8521 36.5442 26.6348C36.3357 26.4175 36.0514 26.2891 35.7505 26.2766H34.8334V25.5262C34.84 25.369 34.8147 25.212 34.759 25.0648C34.7034 24.9176 34.6185 24.7831 34.5096 24.6695C34.4007 24.556 34.2699 24.4656 34.1251 24.4038C33.9803 24.3421 33.8246 24.3103 33.6672 24.3103C33.5098 24.3103 33.3541 24.3421 33.2093 24.4038C33.0645 24.4656 32.9337 24.556 32.8248 24.6695C32.7159 24.7831 32.631 24.9176 32.5754 25.0648C32.5197 25.212 32.4944 25.369 32.501 25.5262V26.305C31.5423 26.3774 30.6506 26.8241 30.0186 27.5485C29.3865 28.2729 29.0648 29.2169 29.1231 30.1766C29.1813 31.1362 29.6147 32.0344 30.3297 32.6771C31.0447 33.3198 31.9839 33.6554 32.9443 33.6113H34.3881C34.7429 33.6113 35.0833 33.7523 35.3342 34.0032C35.5851 34.2542 35.7261 34.5945 35.7261 34.9494C35.7261 35.3042 35.5851 35.6446 35.3342 35.8955C35.0833 36.1464 34.7429 36.2874 34.3881 36.2874H31.5859C31.4287 36.2808 31.2717 36.3061 31.1245 36.3618C30.9773 36.4174 30.8429 36.5023 30.7293 36.6112C30.6157 36.7201 30.5253 36.8509 30.4636 36.9957C30.4018 37.1404 30.37 37.2962 30.37 37.4536C30.37 37.611 30.4018 37.7667 30.4636 37.9115C30.5253 38.0563 30.6157 38.187 30.7293 38.296C30.8429 38.4049 30.9773 38.4898 31.1245 38.5454C31.2717 38.6011 31.4287 38.6264 31.5859 38.6198H32.501V39.3701C32.5136 39.671 32.6419 39.9554 32.8593 40.1638C33.0766 40.3723 33.3661 40.4887 33.6672 40.4887C33.9683 40.4887 34.2578 40.3723 34.4751 40.1638C34.6925 39.9554 34.8208 39.671 34.8334 39.3701V38.5852C35.7929 38.5136 36.6856 38.0672 37.3184 37.3424C37.9512 36.6176 38.2731 35.6728 38.2146 34.7124C38.1561 33.752 37.7217 32.8533 37.0056 32.2108C36.2895 31.5682 35.3491 31.2334 34.3881 31.2789H32.9443C32.7646 31.2859 32.5853 31.2566 32.4173 31.1927C32.2492 31.1287 32.0957 31.0315 31.9661 30.9069C31.8365 30.7822 31.7334 30.6327 31.6629 30.4672C31.5925 30.3018 31.5562 30.1238 31.5562 29.9439C31.5562 29.7641 31.5925 29.5861 31.6629 29.4207C31.7334 29.2552 31.8365 29.1057 31.9661 28.981C32.0957 28.8563 32.2492 28.7591 32.4173 28.6952C32.5853 28.6313 32.7646 28.6019 32.9443 28.609Z" fill="#FBD846"/>
<path d="M20.8125 31.6227C20.597 31.839 20.4744 32.1308 20.4709 32.4361C20.4707 32.5134 20.4789 32.5904 20.4953 32.6659C20.5096 32.74 20.5321 32.8123 20.5624 32.8815C20.5903 32.9532 20.6265 33.0215 20.6702 33.0848C20.7113 33.148 20.759 33.2066 20.8125 33.2597C20.8667 33.314 20.9259 33.363 20.9894 33.4061C21.0537 33.4478 21.1218 33.4832 21.1928 33.5118C21.2638 33.5413 21.3373 33.5644 21.4124 33.581C21.4875 33.5949 21.5638 33.6017 21.6401 33.6013C21.9489 33.6002 22.2448 33.4775 22.4637 33.2597C22.5179 33.2061 22.5669 33.1476 22.6101 33.0848C22.6508 33.0197 22.6868 32.9517 22.7179 32.8815C22.7448 32.8113 22.7665 32.7393 22.783 32.6659C22.7987 32.5904 22.8062 32.5133 22.8053 32.4361C22.8036 32.2062 22.7339 31.982 22.605 31.7916C22.4761 31.6012 22.2937 31.4533 22.0809 31.3663C21.868 31.2794 21.6343 31.2573 21.4089 31.3029C21.1836 31.3486 20.9768 31.4598 20.8145 31.6227H20.8125Z" fill="#FBD846"/>
<path d="M46.354 33.0934C46.3977 33.1557 46.4467 33.2142 46.5004 33.2682C46.6217 33.3906 46.7688 33.4844 46.9309 33.5429C47.093 33.6014 47.2661 33.623 47.4377 33.6063C47.6092 33.5895 47.7748 33.5348 47.9226 33.4461C48.0703 33.3574 48.1965 33.2369 48.2919 33.0934C48.3356 33.03 48.3718 32.9618 48.3997 32.89C48.43 32.8209 48.4525 32.7486 48.4668 32.6745C48.4829 32.6003 48.4911 32.5246 48.4912 32.4487C48.4977 32.2915 48.4724 32.1346 48.4168 31.9873C48.3611 31.8401 48.2763 31.7057 48.1674 31.5921C48.0584 31.4785 47.9276 31.3881 47.7829 31.3264C47.6381 31.2646 47.4823 31.2328 47.325 31.2328C47.1676 31.2328 47.0118 31.2646 46.8671 31.3264C46.7223 31.3881 46.5915 31.4785 46.4826 31.5921C46.3736 31.7057 46.2888 31.8401 46.2331 31.9873C46.1775 32.1346 46.1522 32.2915 46.1588 32.4487C46.1592 32.5245 46.1667 32.6001 46.1811 32.6745C46.1973 32.7481 46.2198 32.8202 46.2482 32.89C46.2779 32.9606 46.3132 33.0286 46.354 33.0934Z" fill="#FBD846"/>
<path d="M75.776 50.7611C74.6874 49.9056 73.3174 49.4898 71.937 49.596C70.5565 49.7022 69.2662 50.3226 68.3213 51.3345L60.9458 59.3078C60.8345 59.4189 60.7468 59.5512 60.688 59.697C60.6291 59.8428 60.6003 59.9989 60.6033 60.1561C60.6062 60.3133 60.6409 60.4682 60.7052 60.6117C60.7696 60.7551 60.8622 60.8841 60.9776 60.9908C61.093 61.0976 61.2288 61.1799 61.3768 61.2329C61.5248 61.2859 61.6819 61.3085 61.8389 61.2992C61.9958 61.29 62.1493 61.2492 62.29 61.1792C62.4308 61.1092 62.5559 61.0115 62.658 60.8919L70.0334 52.9186C70.5774 52.3356 71.3205 51.9781 72.1156 51.9171C72.9106 51.8561 73.6996 52.096 74.3261 52.5892C74.6547 52.8501 74.9282 53.1738 75.1306 53.5414C75.333 53.9089 75.4603 54.3131 75.5052 54.7303C75.55 55.1475 75.5115 55.5694 75.3918 55.9716C75.2721 56.3738 75.0737 56.7482 74.8081 57.073L61.9687 72.7756C61.0362 73.9191 59.7079 74.6704 58.2474 74.8802L33.3942 78.4774C32.1317 78.6638 30.929 79.1382 29.8793 79.8639C28.8295 80.5896 27.9608 81.5471 27.3405 82.6623L26.6613 83.8824H3.79888L15.6419 66.3803C17.3365 63.8569 19.6893 61.8452 22.4453 60.5631C25.2013 59.2809 28.2556 58.7772 31.2773 59.1065C33.2813 59.3144 35.255 59.7504 37.1602 60.4059C38.4545 60.8687 39.818 61.108 41.1926 61.1135H53.0783C53.9894 61.1146 54.8629 61.477 55.5071 62.1213C56.1514 62.7655 56.5138 63.639 56.5149 64.5501C56.5138 65.5335 56.1227 66.4763 55.4273 67.1716C54.732 67.867 53.7892 68.2581 52.8058 68.2592H41.9165C40.1341 68.2589 38.4077 68.8819 37.0361 70.0202L34.478 72.1432C34.2492 72.3436 34.1076 72.6255 34.0835 72.9287C34.0594 73.232 34.1547 73.5326 34.349 73.7667C34.5433 74.0008 34.8213 74.1497 35.1238 74.1819C35.4263 74.214 35.7294 74.1267 35.9686 73.9387L38.5246 71.8158C39.4749 71.0282 40.6701 70.5967 41.9043 70.5957H52.8017C54.4034 70.5935 55.9388 69.9563 57.0713 68.8238C58.2038 67.6913 58.841 66.1558 58.8432 64.5542C58.841 63.0248 58.2326 61.5587 57.1511 60.4773C56.0697 59.3959 54.6036 58.7874 53.0742 58.7852H41.1926C40.0833 58.7792 38.9831 58.5846 37.939 58.2097C35.8658 57.4927 33.7173 57.0151 31.5356 56.7863C28.0915 56.4092 24.6099 56.9817 21.4678 58.4416C18.3257 59.9015 15.643 62.1933 13.7101 65.0687L0.634781 84.3867C0.513639 84.5623 0.442917 84.7677 0.430298 84.9806C0.417679 85.1935 0.463644 85.4058 0.563202 85.5945C0.662759 85.7831 0.812102 85.9409 0.995009 86.0506C1.17791 86.1603 1.38739 86.2178 1.60069 86.2169H27.3486C27.5572 86.2155 27.7616 86.1582 27.9404 86.0509C28.1192 85.9436 28.266 85.7902 28.3654 85.6068L29.3821 83.7767C29.8282 82.9758 30.4524 82.2882 31.2066 81.767C31.9609 81.2459 32.8248 80.9052 33.7317 80.7712L58.591 77.1882C60.6291 76.8952 62.4828 75.8472 63.7846 74.2519L76.624 58.5493C77.0865 57.9856 77.4321 57.3354 77.6406 56.6366C77.8491 55.9378 77.9163 55.2045 77.8383 54.4795C77.7603 53.7545 77.5387 53.0523 77.1864 52.4138C76.834 51.7754 76.358 51.2136 75.7862 50.7611H75.776Z" fill="black"/>
</svg>
