<svg width="79" height="78" viewBox="0 0 79 78" fill="none" xmlns="http://www.w3.org/2000/svg">
<path d="M77.0636 74.69C69.0562 74.69 61.0274 74.69 53.02 74.69C39.7169 74.69 26.4139 74.69 13.1109 74.69C9.26728 74.69 5.44506 74.69 1.60149 74.69C2.13532 75.1099 2.66915 75.5298 3.20298 75.9497C3.20298 70.575 3.20298 65.2003 3.20298 59.8256C3.20298 49.0762 3.20298 38.3268 3.20298 27.5774C3.20298 19.5322 3.20298 11.4869 3.20298 3.45847C3.20298 2.76984 3.20298 2.098 3.20298 1.40937C2.66915 1.82927 2.13532 2.24916 1.60149 2.66906C9.60893 2.66906 17.6377 2.66906 25.6452 2.66906C38.9482 2.66906 52.2512 2.66906 65.5543 2.66906C69.3978 2.66906 73.2201 2.66906 77.0636 2.66906C76.5298 2.24916 75.996 1.82927 75.4622 1.40937C75.4622 6.78407 75.4622 12.1588 75.4622 17.5335C75.4622 28.2829 75.4622 39.0322 75.4622 49.7816C75.4622 57.8269 75.4622 65.8721 75.4622 73.9006C75.4622 74.5892 75.4622 75.2611 75.4622 75.9497C75.4622 77.5789 78.6651 77.5789 78.6651 75.9497C78.6651 70.575 78.6651 65.2003 78.6651 59.8256C78.6651 49.0762 78.6651 38.3268 78.6651 27.5774C78.6651 19.5322 78.6651 11.4869 78.6651 3.45847C78.6651 2.76984 78.6651 2.098 78.6651 1.40937C78.6651 0.720735 77.9391 0.149673 77.0636 0.149673C69.0562 0.149673 61.0274 0.149673 53.02 0.149673C39.7169 0.149673 26.4139 0.149673 13.1109 0.149673C9.26728 0.149673 5.44506 0.149673 1.60149 0.149673C0.726008 0.149673 0 0.720735 0 1.40937C0 6.78407 0 12.1588 0 17.5335C0 28.2829 0 39.0322 0 49.7816C0 57.8269 0 65.8721 0 73.9006C0 74.5892 0 75.2611 0 75.9497C0 76.6383 0.726008 77.2094 1.60149 77.2094C9.60893 77.2094 17.6377 77.2094 25.6452 77.2094C38.9482 77.2094 52.2512 77.2094 65.5543 77.2094C69.3978 77.2094 73.2201 77.2094 77.0636 77.2094C79.1349 77.2094 79.1349 74.69 77.0636 74.69Z" fill="#333333"/>
<path d="M37.8917 1.37923C37.8917 6.7876 37.8917 12.196 37.8917 17.6043C37.8917 28.4211 37.8917 39.2378 37.8917 50.0545C37.8917 58.1502 37.8917 66.2458 37.8917 74.3246C37.8917 75.0175 37.8917 75.6936 37.8917 76.3865C37.8917 78.0259 41.1083 78.0259 41.1083 76.3865C41.1083 70.9782 41.1083 65.5698 41.1083 60.1614C41.1083 49.3447 41.1083 38.528 41.1083 27.7112C41.1083 19.6156 41.1083 11.5199 41.1083 3.44117C41.1083 2.74823 41.1083 2.07218 41.1083 1.37923C41.1083 -0.260179 37.8917 -0.260179 37.8917 1.37923Z" fill="#FBD846"/>
<path d="M1.60837 3.25418C9.6499 3.25418 17.7129 3.25418 25.7544 3.25418C39.1141 3.25418 52.4737 3.25418 65.8334 3.25418C69.6933 3.25418 73.5318 3.25418 77.3918 3.25418C79.4718 3.25418 79.4718 0.0375671 77.3918 0.0375671C69.3502 0.0375671 61.2872 0.0375671 53.2457 0.0375671C39.8861 0.0375671 26.5264 0.0375671 13.1667 0.0375671C9.30679 0.0375671 5.4683 0.0375671 1.60837 0.0375671C-0.47171 0.0375671 -0.47171 3.25418 1.60837 3.25418Z" fill="#333333"/>
<path d="M77.3917 74.448C69.3502 74.448 61.2872 74.448 53.2457 74.448C39.886 74.448 26.5263 74.448 13.1667 74.448C9.30673 74.448 5.46824 74.448 1.60831 74.448C2.14441 74.9841 2.68051 75.5202 3.21661 76.0563C3.21661 67.8861 3.21661 59.7374 3.21661 51.5672C3.21661 38.3147 3.21661 25.0623 3.21661 11.8099C3.21661 8.4217 3.21661 5.03354 3.21661 1.62393C2.68051 2.16003 2.14441 2.69613 1.60831 3.23224C9.64984 3.23224 17.7128 3.23224 25.7543 3.23224C39.114 3.23224 52.4737 3.23224 65.8333 3.23224C69.6933 3.23224 73.5318 3.23224 77.3917 3.23224C76.8556 2.69613 76.3195 2.16003 75.7834 1.62393C75.7834 9.79412 75.7834 17.9429 75.7834 26.1131C75.7834 39.3655 75.7834 52.6179 75.7834 65.8704C75.7834 69.2585 75.7834 72.6467 75.7834 76.0563C75.7834 78.1364 79 78.1364 79 76.0563C79 67.8861 79 59.7374 79 51.5672C79 38.3147 79 25.0623 79 11.8099C79 8.4217 79 5.03354 79 1.62393C79 0.744724 78.2709 0.015625 77.3917 0.015625C69.3502 0.015625 61.2872 0.015625 53.2457 0.015625C39.886 0.015625 26.5263 0.015625 13.1667 0.015625C9.30673 0.015625 5.46824 0.015625 1.60831 0.015625C0.729099 0.015625 0 0.744724 0 1.62393C0 9.79412 0 17.9429 0 26.1131C0 39.3655 0 52.6179 0 65.8704C0 69.2585 0 72.6467 0 76.0563C0 76.9355 0.729099 77.6646 1.60831 77.6646C9.64984 77.6646 17.7128 77.6646 25.7543 77.6646C39.114 77.6646 52.4737 77.6646 65.8333 77.6646C69.6933 77.6646 73.5318 77.6646 77.3917 77.6646C79.4718 77.6646 79.4718 74.448 77.3917 74.448Z" fill="#333333"/>
<path d="M43.5529 35.4198C43.5529 37.7143 43.5529 39.9874 43.5529 42.2819C43.5529 44.362 46.7696 44.362 46.7696 42.2819C46.7696 39.9874 46.7696 37.7143 46.7696 35.4198C46.7696 33.3612 43.5529 33.3612 43.5529 35.4198Z" fill="#FBD846"/>
<path d="M32.2305 35.4198C32.2305 37.7143 32.2305 39.9874 32.2305 42.2819C32.2305 44.362 35.4471 44.362 35.4471 42.2819C35.4471 39.9874 35.4471 37.7143 35.4471 35.4198C35.4471 33.3612 32.2305 33.3612 32.2305 35.4198Z" fill="#FBD846"/>
</svg>
