<svg width="87" height="87" viewBox="0 0 87 87" fill="none" xmlns="http://www.w3.org/2000/svg">
<path d="M86.7551 86.7646H0.540115L86.7551 0.764648V86.7646ZM84.0782 74.7486H76.0475V72.0784H84.0782V64.0677H78.7244V61.3975H84.0782V53.3868H76.0475V50.7166H84.0782V42.7059H78.7244V40.0357H84.0782V32.025H76.0475V29.3548H84.0782V7.21058L7.00216 84.0944H84.0782V74.7486Z" fill="#333333"/>
<path d="M69.3552 38.1478V74.7486H32.6629L69.3552 38.1478ZM66.6783 44.5938L39.125 72.0784H66.6783V44.5938Z" fill="#333333"/>
<path d="M0.592323 63.2333L3.90097 50.0343L53.2938 0.764648L63.2171 10.6632L13.8242 59.9329L0.592323 63.2333ZM4.27306 59.5617L12.4563 57.5217L51.4012 18.6739L45.2631 12.551L6.31821 51.3988L4.27306 59.5617ZM53.2938 4.54035L47.1557 10.6632L53.2938 16.786L59.4319 10.6632L53.2938 4.54035Z" fill="#FBD846"/>
</svg>
